<?xml version="1.0" encoding="utf-8"?>
<!-- Generator: Adobe Illustrator 28.2.0, SVG Export Plug-In . SVG Version: 6.00 Build 0)  -->
<svg version="1.1" id="Layer_1" xmlns="http://www.w3.org/2000/svg" xmlns:xlink="http://www.w3.org/1999/xlink" x="0px" y="0px"
	 viewBox="0 0 512 512" style="enable-background:new 0 0 512 512;" xml:space="preserve">
<style type="text/css">
	.st0{opacity:0.2;fill:#CE6746;enable-background:new    ;}
	.st1{fill:#CE6746;}
	.st2{display:none;fill:#50AD3D;}
	.st3{display:none;fill:#5F99FF;}
</style>
<circle class="st0" cx="256" cy="256" r="232.7"/>
<path class="st1" d="M256,0C114.8,0,0,114.8,0,256s114.8,256,256,256s256-114.8,256-256S397.2,0,256,0z M256,465.6
	c-115.5,0-209.5-94-209.5-209.5S140.5,46.6,256,46.6s209.5,93.9,209.5,209.5C465.5,371.6,371.5,465.6,256,465.6z"/>
<path class="st2" d="M281.1,240.4c-11.2-4.7-52.5-11.2-52.5-29.3c0-13.3,15.4-17.2,24.7-17.2c8.4,0,18.5,2.7,23.9,8
	c3.4,3.2,4.8,5.6,5.9,8.9c1.4,3.8,2.3,8,7.6,8h27.5c6.5,0,8.1-1.2,8.1-8.3c0-30.4-23.9-47.6-51.1-53.5v-23.7c0-5.3-1.7-8.6-8.1-8.6
	h-21.9c-6.5,0-8.1,3.2-8.1,8.6V156c-29.2,5.6-53.6,23.9-53.6,57.1c0,37.5,26.1,49.4,54.4,58.8c23.9,8,48.8,8.3,48.8,24.8
	c0,16.6-12.3,20.1-27.5,20.1c-10.4,0-21.9-2.7-27.5-9.8c-3.6-4.4-5-8.3-5.3-12.1c-0.6-7.4-3.6-8.3-10.1-8.3h-27.2
	c-6.5,0-8.1,1.5-8.1,8.3c0,33.7,27,54.1,56.1,60.6v23.1c0,5.3,1.7,8.6,8.1,8.6h21.9c6.5,0,8.1-3.3,8.1-8.6v-22.4
	c33.1-5,55.8-25.1,55.8-60.6C331.1,255.4,301.4,246.8,281.1,240.4"/>
<path class="st1" d="M259.9,271.2l-103,67.4c-8.8,5.8-20.2,2.4-25.4-7.7c-5.2-10.1-2-22.9,6.8-28.7l74.8-49l-77.3-45.8
	c-9.1-5.4-12.6-18.1-7.9-28.4c4.7-10.3,16-14.3,25-8.9l105.5,62.4c3.9,3.1,7.1,6.4,8.7,11C271.6,253.3,268.5,265.6,259.9,271.2z
	 M386.2,328L386.2,328c0-9-7.3-16.4-16.4-16.4h-86.8c-9,0-16.4,7.3-16.4,16.4v0c0,9,7.3,16.4,16.4,16.4h86.8
	C378.9,344.3,386.2,337,386.2,328z"/>
<path class="st3" d="M354.3,147.4h-18.5v-7.1c0-4.2-3.4-7.6-7.6-7.6h-7.8c-4.2,0-7.6,3.4-7.6,7.6v7.1l0,0H199.2v-7.1
	c0-4.2-3.4-7.6-7.6-7.6h-7.8c-4.2,0-7.6,3.4-7.6,7.6v7.1h-18.5c-17.6,0-31.9,14.3-31.9,31.9v25.6v142.5c0,17.6,14.3,31.9,31.9,31.9
	h196.5c17.6,0,31.9-14.3,31.9-31.9V204.9v-25.6C386.1,161.7,371.8,147.4,354.3,147.4z M143.2,179.3c0-8,6.5-14.5,14.5-14.5h18.5v7.1
	c0,4.2,3.4,7.6,7.6,7.6h7.8c4.2,0,7.6-3.4,7.6-7.6v-7.1h113.7l0,0v7.1c0,4.2,3.4,7.6,7.6,7.6h7.8c4.2,0,7.6-3.4,7.6-7.6v-7.1h18.5
	c8,0,14.5,6.5,14.5,14.5v17H143.2V179.3z M368.8,347.4c0,8-6.5,14.5-14.5,14.5H157.7c-8,0-14.5-6.5-14.5-14.5V213.6h225.5
	L368.8,347.4L368.8,347.4z"/>
</svg>
